# xmcd CD database file
#
# Track frame offsets:
#	150
#	12775
#	33622
#	47709
#	60667
#	75349
#	88496
#	97870
#	111179
#	126372
#	141131
#	155895
#	170217
#	185489
#	193890
#	211187
#	226010
#	236141
#
# Disc length: 3333 seconds
#
# Revision: 1
# Processed by: cddbd v1.5.2PL0 Copyright (c) Steve Scherf et al.
# Submitted via: CDex 1.51
#
DISCID=fb0d0312
DTITLE=Jazz Various - Jazz Ladies CD 1
DYEAR=1900
DGENRE=Jazz
TTITLE0=Dinah Washington - Mad About the Boy
TTITLE1=Nina Simone - Ain't Got No/I Got Life
TTITLE2=Billie Holiday - Carelessly
TTITLE3=Judy Garland - Over the Rainbow
TTITLE4=Ella Fitzgerald - How High the Moon
TTITLE5=Sarah Vaughan - Body and Soul
TTITLE6=Peggy Lee - Let There Be Love
TTITLE7=Doris Day and Les Brown Orchestra - Till the End of Time
TTITLE8=Dinah Shore - Georgia On My Mind
TTITLE9=Astrud Gilberto - The Girl From Ipanema
TTITLE10=Billie Holiday - Pennies From Heaven
TTITLE11=Ella Fitzgerald - Holiday in Harlem
TTITLE12=Dinah Washington - Smoke Gets In Your Eyes
TTITLE13=Judy Garland - Give My Regards to Broadway
TTITLE14=Nina Simone - Don't Let Me Be Misunderstood
TTITLE15=Sarah Vaughan - Black Coffee
TTITLE16=Peggy Lee - Just One of Those Things
TTITLE17=Doris Day and Les Brown Orchestra - Between Friends
EXTD=
EXTT0=
EXTT1=
EXTT2=
EXTT3=
EXTT4=
EXTT5=
EXTT6=
EXTT7=
EXTT8=
EXTT9=
EXTT10=
EXTT11=
EXTT12=
EXTT13=
EXTT14=
EXTT15=
EXTT16=
EXTT17=
PLAYORDER=
